<svg xmlns="http://www.w3.org/2000/svg" width="1920" height="1080"><path d="M94,1290L-179,1302L271,1290Z" fill="#7e8da8" stroke="#7e8da8" stroke-width="1.51"/><path d="M271,1290L-179,1302L654,1295Z" fill="#7687a4" stroke="#7687a4" stroke-width="1.51"/><path d="M199,-202L341,-187L663,-180Z" fill="#e0dfee" stroke="#e0dfee" stroke-width="1.51"/><path d="M654,1295L-179,1302L1258,1310Z" fill="#607d9d" stroke="#607d9d" stroke-width="1.51"/><path d="M1281,-176L1543,-193L1672,-212Z" fill="#9ab3d6" stroke="#9ab3d6" stroke-width="1.51"/><path d="M971,-178L1281,-176L1672,-212Z" fill="#a0bddb" stroke="#a0bddb" stroke-width="1.51"/><path d="M971,-178L1672,-212L1807,-231Z" fill="#9bb4d7" stroke="#9bb4d7" stroke-width="1.51"/><path d="M663,-180L971,-178L1807,-231Z" fill="#abc5df" stroke="#abc5df" stroke-width="1.51"/><path d="M199,-202L663,-180L1807,-231Z" fill="#bfd0e6" stroke="#bfd0e6" stroke-width="1.51"/><path d="M-40,-213L199,-202L1807,-231Z" fill="#d0d8ea" stroke="#d0d8ea" stroke-width="1.51"/><path d="M1807,-231L1942,-162L2084,-168Z" fill="#8c9ebc" stroke="#8c9ebc" stroke-width="1.51"/><path d="M2082,518L2109,658L2114,392Z" fill="#44749a" stroke="#44749a" stroke-width="1.51"/><path d="M2023,76L1943,226L2123,280Z" fill="#6f88aa" stroke="#6f88aa" stroke-width="1.51"/><path d="M2109,658L1980,728L2150,782Z" fill="#226a95" stroke="#226a95" stroke-width="1.51"/><path d="M2114,392L2109,658L2150,782Z" fill="#366e95" stroke="#366e95" stroke-width="1.51"/><path d="M1982,1100L2118,1154L2156,953Z" fill="#045381" stroke="#045381" stroke-width="1.51"/><path d="M1929,1006L1982,1100L2156,953Z" fill="#04588b" stroke="#04588b" stroke-width="1.51"/><path d="M2150,782L1979,824L2156,953Z" fill="#125f8e" stroke="#125f8e" stroke-width="1.51"/><path d="M1979,824L1929,1006L2156,953Z" fill="#065e92" stroke="#065e92" stroke-width="1.51"/><path d="M2023,76L2123,280L2157,106Z" fill="#7185a4" stroke="#7185a4" stroke-width="1.51"/><path d="M2119,-80L2023,76L2157,106Z" fill="#7a8ba7" stroke="#7a8ba7" stroke-width="1.51"/><path d="M2114,392L2150,782L2157,106Z" fill="#50769a" stroke="#50769a" stroke-width="1.51"/><path d="M2123,280L2114,392L2157,106Z" fill="#647f9e" stroke="#647f9e" stroke-width="1.51"/><path d="M2150,782L2156,953L2157,106Z" fill="#356c92" stroke="#356c92" stroke-width="1.51"/><path d="M1980,728L1979,824L2150,782Z" fill="#1b6997" stroke="#1b6997" stroke-width="1.51"/><path d="M2082,518L1968,518L2109,658Z" fill="#3f759d" stroke="#3f759d" stroke-width="1.51"/><path d="M1998,368L2082,518L2114,392Z" fill="#527ba0" stroke="#527ba0" stroke-width="1.51"/><path d="M1952,-59L2023,76L2119,-80Z" fill="#8092b0" stroke="#8092b0" stroke-width="1.51"/><path d="M1998,368L2114,392L2123,280Z" fill="#5d7da1" stroke="#5d7da1" stroke-width="1.51"/><path d="M1943,226L1998,368L2123,280Z" fill="#6584a8" stroke="#6584a8" stroke-width="1.51"/><path d="M1982,1100L2097,1226L2118,1154Z" fill="#034e7a" stroke="#034e7a" stroke-width="1.51"/><path d="M2084,-168L1952,-59L2119,-80Z" fill="#8495b0" stroke="#8495b0" stroke-width="1.51"/><path d="M1968,518L1980,728L2109,658Z" fill="#35739e" stroke="#35739e" stroke-width="1.51"/><path d="M1998,368L1968,518L2082,518Z" fill="#4e7ca3" stroke="#4e7ca3" stroke-width="1.51"/><path d="M1942,-162L1952,-59L2084,-168Z" fill="#8899b6" stroke="#8899b6" stroke-width="1.51"/><path d="M1982,1100L2023,1303L2097,1226Z" fill="#034b76" stroke="#034b76" stroke-width="1.51"/><path d="M1854,962L1929,1006L1979,824Z" fill="#06639c" stroke="#06639c" stroke-width="1.51"/><path d="M1968,518L1843,668L1980,728Z" fill="#3678a6" stroke="#3678a6" stroke-width="1.51"/><path d="M1952,-59L1844,100L2023,76Z" fill="#8095b6" stroke="#8095b6" stroke-width="1.51"/><path d="M1844,100L1943,226L2023,76Z" fill="#7990b4" stroke="#7990b4" stroke-width="1.51"/><path d="M1982,1100L1820,1162L2023,1303Z" fill="#035281" stroke="#035281" stroke-width="1.51"/><path d="M1820,1162L1815,1309L2023,1303Z" fill="#034f7d" stroke="#034f7d" stroke-width="1.51"/><path d="M1874,511L1843,668L1968,518Z" fill="#437eac" stroke="#437eac" stroke-width="1.51"/><path d="M1852,847L1854,962L1979,824Z" fill="#1169a0" stroke="#1169a0" stroke-width="1.51"/><path d="M1943,226L1787,417L1998,368Z" fill="#6488b1" stroke="#6488b1" stroke-width="1.51"/><path d="M1787,417L1874,511L1998,368Z" fill="#5785b1" stroke="#5785b1" stroke-width="1.51"/><path d="M1874,511L1968,518L1998,368Z" fill="#5180aa" stroke="#5180aa" stroke-width="1.51"/><path d="M971,-178L1152,-163L1281,-176Z" fill="#abc5de" stroke="#abc5de" stroke-width="1.51"/><path d="M1683,1277L1537,1308L1815,1309Z" fill="#035482" stroke="#035482" stroke-width="1.51"/><path d="M1825,204L1787,417L1943,226Z" fill="#6b8eb7" stroke="#6b8eb7" stroke-width="1.51"/><path d="M1852,847L1979,824L1980,728Z" fill="#1b6c9f" stroke="#1b6c9f" stroke-width="1.51"/><path d="M1843,668L1852,847L1980,728Z" fill="#2173a5" stroke="#2173a5" stroke-width="1.51"/><path d="M1929,1006L1820,1162L1982,1100Z" fill="#045b8e" stroke="#045b8e" stroke-width="1.51"/><path d="M1844,100L1825,204L1943,226Z" fill="#7792b9" stroke="#7792b9" stroke-width="1.51"/><path d="M1825,-73L1844,100L1952,-59Z" fill="#869cbe" stroke="#869cbe" stroke-width="1.51"/><path d="M1942,-162L1825,-73L1952,-59Z" fill="#8a9dbe" stroke="#8a9dbe" stroke-width="1.51"/><path d="M1854,962L1820,1162L1929,1006Z" fill="#045f96" stroke="#045f96" stroke-width="1.51"/><path d="M1807,-231L1825,-73L1942,-162Z" fill="#8ea2c2" stroke="#8ea2c2" stroke-width="1.51"/><path d="M1675,284L1787,417L1825,204Z" fill="#6b90bc" stroke="#6b90bc" stroke-width="1.51"/><path d="M1825,-73L1715,-69L1844,100Z" fill="#889ec3" stroke="#889ec3" stroke-width="1.51"/><path d="M1715,-69L1688,86L1844,100Z" fill="#859ec4" stroke="#859ec4" stroke-width="1.51"/><path d="M1843,668L1654,710L1852,847Z" fill="#2278ac" stroke="#2278ac" stroke-width="1.51"/><path d="M1654,710L1646,817L1852,847Z" fill="#1d77ae" stroke="#1d77ae" stroke-width="1.51"/><path d="M1684,1005L1820,1162L1854,962Z" fill="#04629b" stroke="#04629b" stroke-width="1.51"/><path d="M1664,513L1843,668L1874,511Z" fill="#4582b2" stroke="#4582b2" stroke-width="1.51"/><path d="M1787,417L1664,513L1874,511Z" fill="#5287b6" stroke="#5287b6" stroke-width="1.51"/><path d="M1710,431L1664,513L1787,417Z" fill="#588bb9" stroke="#588bb9" stroke-width="1.51"/><path d="M1683,1277L1815,1309L1820,1162Z" fill="#045484" stroke="#045484" stroke-width="1.51"/><path d="M1684,1005L1686,1138L1820,1162Z" fill="#046198" stroke="#046198" stroke-width="1.51"/><path d="M1807,-231L1715,-69L1825,-73Z" fill="#8ea3c6" stroke="#8ea3c6" stroke-width="1.51"/><path d="M1664,513L1654,710L1843,668Z" fill="#3b81b3" stroke="#3b81b3" stroke-width="1.51"/><path d="M1646,817L1684,1005L1852,847Z" fill="#106ea9" stroke="#106ea9" stroke-width="1.51"/><path d="M1852,847L1684,1005L1854,962Z" fill="#0468a3" stroke="#0468a3" stroke-width="1.51"/><path d="M1688,86L1825,204L1844,100Z" fill="#7e97bf" stroke="#7e97bf" stroke-width="1.51"/><path d="M1672,-212L1715,-69L1807,-231Z" fill="#92a8ca" stroke="#92a8ca" stroke-width="1.51"/><path d="M1686,1138L1683,1277L1820,1162Z" fill="#045a8e" stroke="#045a8e" stroke-width="1.51"/><path d="M1688,86L1675,284L1825,204Z" fill="#7997c0" stroke="#7997c0" stroke-width="1.51"/><path d="M1675,284L1710,431L1787,417Z" fill="#628ebc" stroke="#628ebc" stroke-width="1.51"/><path d="M1566,568L1654,710L1664,513Z" fill="#4286ba" stroke="#4286ba" stroke-width="1.51"/><path d="M1646,817L1554,957L1684,1005Z" fill="#086fad" stroke="#086fad" stroke-width="1.51"/><path d="M1684,1005L1546,1082L1686,1138Z" fill="#0466a0" stroke="#0466a0" stroke-width="1.51"/><path d="M1497,217L1675,284L1688,86Z" fill="#7b9bc7" stroke="#7b9bc7" stroke-width="1.51"/><path d="M1514,104L1497,217L1688,86Z" fill="#83a0cc" stroke="#83a0cc" stroke-width="1.51"/><path d="M1675,284L1551,359L1710,431Z" fill="#6692c1" stroke="#6692c1" stroke-width="1.51"/><path d="M1672,-212L1543,-193L1715,-69Z" fill="#94aacf" stroke="#94aacf" stroke-width="1.51"/><path d="M1543,-193L1506,-60L1715,-69Z" fill="#93abd2" stroke="#93abd2" stroke-width="1.51"/><path d="M1506,-60L1688,86L1715,-69Z" fill="#8ca5cc" stroke="#8ca5cc" stroke-width="1.51"/><path d="M1551,359L1664,513L1710,431Z" fill="#5b8ebe" stroke="#5b8ebe" stroke-width="1.51"/><path d="M1416,1275L1258,1310L1537,1308Z" fill="#145f8c" stroke="#145f8c" stroke-width="1.51"/><path d="M1537,1308L1683,1277L1686,1138Z" fill="#045a8c" stroke="#045a8c" stroke-width="1.51"/><path d="M1546,1082L1537,1308L1686,1138Z" fill="#056198" stroke="#056198" stroke-width="1.51"/><path d="M1506,-60L1514,104L1688,86Z" fill="#89a5ce" stroke="#89a5ce" stroke-width="1.51"/><path d="M1554,957L1546,1082L1684,1005Z" fill="#056ba8" stroke="#056ba8" stroke-width="1.51"/><path d="M1551,359L1566,568L1664,513Z" fill="#568ec1" stroke="#568ec1" stroke-width="1.51"/><path d="M1497,217L1551,359L1675,284Z" fill="#7198c7" stroke="#7198c7" stroke-width="1.51"/><path d="M1500,849L1554,957L1646,817Z" fill="#1475b3" stroke="#1475b3" stroke-width="1.51"/><path d="M1495,691L1646,817L1654,710Z" fill="#247fb6" stroke="#247fb6" stroke-width="1.51"/><path d="M1566,568L1495,691L1654,710Z" fill="#3885bb" stroke="#3885bb" stroke-width="1.51"/><path d="M915,1236L654,1295L1258,1310Z" fill="#43739a" stroke="#43739a" stroke-width="1.51"/><path d="M1495,691L1500,849L1646,817Z" fill="#217db7" stroke="#217db7" stroke-width="1.51"/><path d="M1495,691L1425,809L1500,849Z" fill="#2782b9" stroke="#2782b9" stroke-width="1.51"/><path d="M1281,-176L1350,-147L1543,-193Z" fill="#9db8d9" stroke="#9db8d9" stroke-width="1.51"/><path d="M1416,1275L1537,1308L1546,1082Z" fill="#0e6194" stroke="#0e6194" stroke-width="1.51"/><path d="M1350,1158L1416,1275L1546,1082Z" fill="#14699d" stroke="#14699d" stroke-width="1.51"/><path d="M1414,404L1427,540L1551,359Z" fill="#6197c6" stroke="#6197c6" stroke-width="1.51"/><path d="M1433,982L1546,1082L1554,957Z" fill="#0e6fab" stroke="#0e6fab" stroke-width="1.51"/><path d="M1417,652L1495,691L1566,568Z" fill="#3f8bbe" stroke="#3f8bbe" stroke-width="1.51"/><path d="M1427,540L1417,652L1566,568Z" fill="#4a8fc1" stroke="#4a8fc1" stroke-width="1.51"/><path d="M1551,359L1427,540L1566,568Z" fill="#5791c3" stroke="#5791c3" stroke-width="1.51"/><path d="M1506,-60L1411,108L1514,104Z" fill="#8ca9d0" stroke="#8ca9d0" stroke-width="1.51"/><path d="M1431,-73L1506,-60L1543,-193Z" fill="#96b0d4" stroke="#96b0d4" stroke-width="1.51"/><path d="M1497,217L1376,269L1551,359Z" fill="#759eca" stroke="#759eca" stroke-width="1.51"/><path d="M1376,269L1414,404L1551,359Z" fill="#6e9cc9" stroke="#6e9cc9" stroke-width="1.51"/><path d="M1500,849L1433,982L1554,957Z" fill="#1374b3" stroke="#1374b3" stroke-width="1.51"/><path d="M1431,-73L1411,108L1506,-60Z" fill="#92aed3" stroke="#92aed3" stroke-width="1.51"/><path d="M1433,982L1350,1158L1546,1082Z" fill="#156fa7" stroke="#156fa7" stroke-width="1.51"/><path d="M1350,-147L1431,-73L1543,-193Z" fill="#9ab4d7" stroke="#9ab4d7" stroke-width="1.51"/><path d="M1411,108L1497,217L1514,104Z" fill="#86a4ce" stroke="#86a4ce" stroke-width="1.51"/><path d="M1425,809L1433,982L1500,849Z" fill="#1e7bb6" stroke="#1e7bb6" stroke-width="1.51"/><path d="M1417,652L1425,809L1495,691Z" fill="#3288bd" stroke="#3288bd" stroke-width="1.51"/><path d="M1411,108L1376,269L1497,217Z" fill="#81a4ce" stroke="#81a4ce" stroke-width="1.51"/><path d="M1417,652L1298,646L1425,809Z" fill="#388cbf" stroke="#388cbf" stroke-width="1.51"/><path d="M1298,646L1215,815L1425,809Z" fill="#328cbf" stroke="#328cbf" stroke-width="1.51"/><path d="M1414,404L1265,524L1427,540Z" fill="#5c99c7" stroke="#5c99c7" stroke-width="1.51"/><path d="M1298,646L1417,652L1427,540Z" fill="#4892c2" stroke="#4892c2" stroke-width="1.51"/><path d="M1270,-71L1298,59L1431,-73Z" fill="#97b5d7" stroke="#97b5d7" stroke-width="1.51"/><path d="M1298,59L1411,108L1431,-73Z" fill="#91afd4" stroke="#91afd4" stroke-width="1.51"/><path d="M1284,1118L1350,1158L1433,982Z" fill="#1c73a8" stroke="#1c73a8" stroke-width="1.51"/><path d="M1285,933L1284,1118L1433,982Z" fill="#1f78b0" stroke="#1f78b0" stroke-width="1.51"/><path d="M1425,809L1285,933L1433,982Z" fill="#207cb6" stroke="#207cb6" stroke-width="1.51"/><path d="M1265,524L1298,646L1427,540Z" fill="#5297c5" stroke="#5297c5" stroke-width="1.51"/><path d="M1350,-147L1270,-71L1431,-73Z" fill="#9bb7d8" stroke="#9bb7d8" stroke-width="1.51"/><path d="M1298,59L1376,269L1411,108Z" fill="#89abd1" stroke="#89abd1" stroke-width="1.51"/><path d="M1376,269L1233,350L1414,404Z" fill="#73a2cc" stroke="#73a2cc" stroke-width="1.51"/><path d="M1215,815L1285,933L1425,809Z" fill="#2b85bb" stroke="#2b85bb" stroke-width="1.51"/><path d="M1298,59L1239,280L1376,269Z" fill="#84abd1" stroke="#84abd1" stroke-width="1.51"/><path d="M1350,1158L1258,1310L1416,1275Z" fill="#1a6795" stroke="#1a6795" stroke-width="1.51"/><path d="M1233,350L1265,524L1414,404Z" fill="#68a0ca" stroke="#68a0ca" stroke-width="1.51"/><path d="M1239,280L1233,350L1376,269Z" fill="#7aa7ce" stroke="#7aa7ce" stroke-width="1.51"/><path d="M1284,1118L1258,1310L1350,1158Z" fill="#1e6e9d" stroke="#1e6e9d" stroke-width="1.51"/><path d="M1281,-176L1270,-71L1350,-147Z" fill="#9ebcda" stroke="#9ebcda" stroke-width="1.51"/><path d="M1114,1215L915,1236L1258,1310Z" fill="#35709a" stroke="#35709a" stroke-width="1.51"/><path d="M1114,1215L1258,1310L1284,1118Z" fill="#276f9c" stroke="#276f9c" stroke-width="1.51"/><path d="M1131,1077L1284,1118L1285,933Z" fill="#297bb0" stroke="#297bb0" stroke-width="1.51"/><path d="M1135,944L1131,1077L1285,933Z" fill="#3181b6" stroke="#3181b6" stroke-width="1.51"/><path d="M1265,524L1118,650L1298,646Z" fill="#539ac6" stroke="#539ac6" stroke-width="1.51"/><path d="M1118,650L1215,815L1298,646Z" fill="#4494c3" stroke="#4494c3" stroke-width="1.51"/><path d="M1122,-18L1057,101L1298,59Z" fill="#9cbad9" stroke="#9cbad9" stroke-width="1.51"/><path d="M1090,231L1239,280L1298,59Z" fill="#8cb0d3" stroke="#8cb0d3" stroke-width="1.51"/><path d="M1057,101L1090,231L1298,59Z" fill="#97b6d7" stroke="#97b6d7" stroke-width="1.51"/><path d="M1270,-71L1122,-18L1298,59Z" fill="#9bbad9" stroke="#9bbad9" stroke-width="1.51"/><path d="M1233,350L1081,377L1265,524Z" fill="#71a5cd" stroke="#71a5cd" stroke-width="1.51"/><path d="M1152,-163L1270,-71L1281,-176Z" fill="#a2bfdc" stroke="#a2bfdc" stroke-width="1.51"/><path d="M1131,1077L1114,1215L1284,1118Z" fill="#2f78a8" stroke="#2f78a8" stroke-width="1.51"/><path d="M1215,815L1136,869L1285,933Z" fill="#3387bc" stroke="#3387bc" stroke-width="1.51"/><path d="M1136,869L1135,944L1285,933Z" fill="#3485bb" stroke="#3485bb" stroke-width="1.51"/><path d="M1081,377L1082,551L1265,524Z" fill="#6ca4cc" stroke="#6ca4cc" stroke-width="1.51"/><path d="M1082,551L1118,650L1265,524Z" fill="#5e9fc9" stroke="#5e9fc9" stroke-width="1.51"/><path d="M1152,-163L1122,-18L1270,-71Z" fill="#a3bfdc" stroke="#a3bfdc" stroke-width="1.51"/><path d="M1090,231L1081,377L1233,350Z" fill="#83add1" stroke="#83add1" stroke-width="1.51"/><path d="M1090,231L1233,350L1239,280Z" fill="#83acd1" stroke="#83acd1" stroke-width="1.51"/><path d="M1118,650L1136,869L1215,815Z" fill="#4191c1" stroke="#4191c1" stroke-width="1.51"/><path d="M663,-180L830,-143L971,-178Z" fill="#c2d1e6" stroke="#c2d1e6" stroke-width="1.51"/><path d="M971,-178L937,-71L1122,-18Z" fill="#b1c7e0" stroke="#b1c7e0" stroke-width="1.51"/><path d="M939,971L1131,1077L1135,944Z" fill="#3f84b8" stroke="#3f84b8" stroke-width="1.51"/><path d="M1118,650L959,673L1136,869Z" fill="#4f98c6" stroke="#4f98c6" stroke-width="1.51"/><path d="M959,673L963,870L1136,869Z" fill="#4f94c4" stroke="#4f94c4" stroke-width="1.51"/><path d="M971,-178L1122,-18L1152,-163Z" fill="#adc5df" stroke="#adc5df" stroke-width="1.51"/><path d="M807,1229L654,1295L915,1236Z" fill="#527ba1" stroke="#527ba1" stroke-width="1.51"/><path d="M1081,377L997,392L1082,551Z" fill="#7aaacf" stroke="#7aaacf" stroke-width="1.51"/><path d="M943,1101L1114,1215L1131,1077Z" fill="#3d7dac" stroke="#3d7dac" stroke-width="1.51"/><path d="M939,971L943,1101L1131,1077Z" fill="#4484b4" stroke="#4484b4" stroke-width="1.51"/><path d="M963,870L1135,944L1136,869Z" fill="#428bbf" stroke="#428bbf" stroke-width="1.51"/><path d="M963,870L939,971L1135,944Z" fill="#478bbf" stroke="#478bbf" stroke-width="1.51"/><path d="M986,249L1081,377L1090,231Z" fill="#8db1d5" stroke="#8db1d5" stroke-width="1.51"/><path d="M937,-71L1057,101L1122,-18Z" fill="#a8c1dd" stroke="#a8c1dd" stroke-width="1.51"/><path d="M943,1101L915,1236L1114,1215Z" fill="#427ba6" stroke="#427ba6" stroke-width="1.51"/><path d="M1082,551L959,673L1118,650Z" fill="#619fca" stroke="#619fca" stroke-width="1.51"/><path d="M937,-71L918,60L1057,101Z" fill="#abc2de" stroke="#abc2de" stroke-width="1.51"/><path d="M986,249L997,392L1081,377Z" fill="#89b0d4" stroke="#89b0d4" stroke-width="1.51"/><path d="M997,392L916,571L1082,551Z" fill="#76a9cf" stroke="#76a9cf" stroke-width="1.51"/><path d="M916,571L959,673L1082,551Z" fill="#6aa4cd" stroke="#6aa4cd" stroke-width="1.51"/><path d="M1057,101L986,249L1090,231Z" fill="#98b7d7" stroke="#98b7d7" stroke-width="1.51"/><path d="M918,60L986,249L1057,101Z" fill="#a2bcda" stroke="#a2bcda" stroke-width="1.51"/><path d="M490,1262L271,1290L654,1295Z" fill="#6982a2" stroke="#6982a2" stroke-width="1.51"/><path d="M959,673L822,791L963,870Z" fill="#5b9bc7" stroke="#5b9bc7" stroke-width="1.51"/><path d="M918,60L821,222L986,249Z" fill="#a4bcdb" stroke="#a4bcdb" stroke-width="1.51"/><path d="M807,541L916,571L997,392Z" fill="#7eacd1" stroke="#7eacd1" stroke-width="1.51"/><path d="M817,350L807,541L997,392Z" fill="#8ab2d4" stroke="#8ab2d4" stroke-width="1.51"/><path d="M986,249L817,350L997,392Z" fill="#91b4d6" stroke="#91b4d6" stroke-width="1.51"/><path d="M821,222L817,350L986,249Z" fill="#9cb9d8" stroke="#9cb9d8" stroke-width="1.51"/><path d="M831,-35L918,60L937,-71Z" fill="#b4c7e1" stroke="#b4c7e1" stroke-width="1.51"/><path d="M818,652L822,791L959,673Z" fill="#67a1cb" stroke="#67a1cb" stroke-width="1.51"/><path d="M830,-143L937,-71L971,-178Z" fill="#b9cce3" stroke="#b9cce3" stroke-width="1.51"/><path d="M822,791L793,999L939,971Z" fill="#5991c2" stroke="#5991c2" stroke-width="1.51"/><path d="M820,1129L915,1236L943,1101Z" fill="#4d81ac" stroke="#4d81ac" stroke-width="1.51"/><path d="M939,971L793,999L943,1101Z" fill="#5189b9" stroke="#5189b9" stroke-width="1.51"/><path d="M916,571L818,652L959,673Z" fill="#6ea5cd" stroke="#6ea5cd" stroke-width="1.51"/><path d="M822,791L939,971L963,870Z" fill="#5693c3" stroke="#5693c3" stroke-width="1.51"/><path d="M782,92L821,222L918,60Z" fill="#aec2de" stroke="#aec2de" stroke-width="1.51"/><path d="M793,999L820,1129L943,1101Z" fill="#5387b5" stroke="#5387b5" stroke-width="1.51"/><path d="M830,-143L831,-35L937,-71Z" fill="#bacce3" stroke="#bacce3" stroke-width="1.51"/><path d="M820,1129L807,1229L915,1236Z" fill="#507ea7" stroke="#507ea7" stroke-width="1.51"/><path d="M807,541L818,652L916,571Z" fill="#78a9cf" stroke="#78a9cf" stroke-width="1.51"/><path d="M831,-35L782,92L918,60Z" fill="#b4c6e0" stroke="#b4c6e0" stroke-width="1.51"/><path d="M341,-187L513,-147L663,-180Z" fill="#d9dbeb" stroke="#d9dbeb" stroke-width="1.51"/><path d="M655,873L678,964L793,999Z" fill="#6593c4" stroke="#6593c4" stroke-width="1.51"/><path d="M641,406L677,557L807,541Z" fill="#8eb3d5" stroke="#8eb3d5" stroke-width="1.51"/><path d="M641,406L807,541L817,350Z" fill="#93b5d6" stroke="#93b5d6" stroke-width="1.51"/><path d="M807,541L677,557L818,652Z" fill="#7facd1" stroke="#7facd1" stroke-width="1.51"/><path d="M793,999L677,1106L820,1129Z" fill="#5c8ab7" stroke="#5c8ab7" stroke-width="1.51"/><path d="M782,92L694,137L821,222Z" fill="#b2c3de" stroke="#b2c3de" stroke-width="1.51"/><path d="M687,292L817,350L821,222Z" fill="#a2bbda" stroke="#a2bbda" stroke-width="1.51"/><path d="M655,873L793,999L822,791Z" fill="#6496c6" stroke="#6496c6" stroke-width="1.51"/><path d="M818,652L673,672L822,791Z" fill="#6fa4cd" stroke="#6fa4cd" stroke-width="1.51"/><path d="M663,-180L672,3L830,-143Z" fill="#c7d1e6" stroke="#c7d1e6" stroke-width="1.51"/><path d="M830,-143L672,3L831,-35Z" fill="#c0cee4" stroke="#c0cee4" stroke-width="1.51"/><path d="M672,3L782,92L831,-35Z" fill="#bccae2" stroke="#bccae2" stroke-width="1.51"/><path d="M677,557L673,672L818,652Z" fill="#7dabd0" stroke="#7dabd0" stroke-width="1.51"/><path d="M677,1106L807,1229L820,1129Z" fill="#5984ae" stroke="#5984ae" stroke-width="1.51"/><path d="M673,672L655,873L822,791Z" fill="#6ea1cb" stroke="#6ea1cb" stroke-width="1.51"/><path d="M694,137L687,292L821,222Z" fill="#adc0dd" stroke="#adc0dd" stroke-width="1.51"/><path d="M687,292L641,406L817,350Z" fill="#a0bada" stroke="#a0bada" stroke-width="1.51"/><path d="M677,1106L654,1295L807,1229Z" fill="#5b81a8" stroke="#5b81a8" stroke-width="1.51"/><path d="M678,964L677,1106L793,999Z" fill="#628fbd" stroke="#628fbd" stroke-width="1.51"/><path d="M672,3L694,137L782,92Z" fill="#bbc8e2" stroke="#bbc8e2" stroke-width="1.51"/><path d="M542,1093L490,1262L654,1295Z" fill="#6685aa" stroke="#6685aa" stroke-width="1.51"/><path d="M513,-147L546,-28L663,-180Z" fill="#d2d7ea" stroke="#d2d7ea" stroke-width="1.51"/><path d="M663,-180L546,-28L672,3Z" fill="#cbd3e7" stroke="#cbd3e7" stroke-width="1.51"/><path d="M541,820L655,873L673,672Z" fill="#75a3cc" stroke="#75a3cc" stroke-width="1.51"/><path d="M540,720L541,820L673,672Z" fill="#7ba8cf" stroke="#7ba8cf" stroke-width="1.51"/><path d="M542,1093L654,1295L677,1106Z" fill="#6588b0" stroke="#6588b0" stroke-width="1.51"/><path d="M559,583L673,672L677,557Z" fill="#87afd3" stroke="#87afd3" stroke-width="1.51"/><path d="M641,406L559,583L677,557Z" fill="#93b5d6" stroke="#93b5d6" stroke-width="1.51"/><path d="M542,1093L677,1106L678,964Z" fill="#688fbc" stroke="#688fbc" stroke-width="1.51"/><path d="M672,3L520,137L694,137Z" fill="#c0cae3" stroke="#c0cae3" stroke-width="1.51"/><path d="M546,245L687,292L694,137Z" fill="#b3c3de" stroke="#b3c3de" stroke-width="1.51"/><path d="M520,137L546,245L694,137Z" fill="#bcc7e1" stroke="#bcc7e1" stroke-width="1.51"/><path d="M546,-28L520,137L672,3Z" fill="#c8cfe5" stroke="#c8cfe5" stroke-width="1.51"/><path d="M515,947L542,1093L678,964Z" fill="#6e94c1" stroke="#6e94c1" stroke-width="1.51"/><path d="M546,245L641,406L687,292Z" fill="#abbfdc" stroke="#abbfdc" stroke-width="1.51"/><path d="M655,873L515,947L678,964Z" fill="#6e97c7" stroke="#6e97c7" stroke-width="1.51"/><path d="M559,583L540,720L673,672Z" fill="#85add2" stroke="#85add2" stroke-width="1.51"/><path d="M491,389L559,583L641,406Z" fill="#9ebad9" stroke="#9ebad9" stroke-width="1.51"/><path d="M546,245L491,389L641,406Z" fill="#acbfdd" stroke="#acbfdd" stroke-width="1.51"/><path d="M541,820L515,947L655,873Z" fill="#749dca" stroke="#749dca" stroke-width="1.51"/><path d="M409,-78L353,139L520,137Z" fill="#d0d2e7" stroke="#d0d2e7" stroke-width="1.51"/><path d="M414,530L340,657L540,720Z" fill="#93b4d6" stroke="#93b4d6" stroke-width="1.51"/><path d="M422,843L515,947L541,820Z" fill="#7ba0cc" stroke="#7ba0cc" stroke-width="1.51"/><path d="M392,1229L490,1262L542,1093Z" fill="#6e89ae" stroke="#6e89ae" stroke-width="1.51"/><path d="M364,1165L392,1229L542,1093Z" fill="#738eb4" stroke="#738eb4" stroke-width="1.51"/><path d="M515,947L418,944L542,1093Z" fill="#7597c3" stroke="#7597c3" stroke-width="1.51"/><path d="M409,-78L520,137L546,-28Z" fill="#cfd3e8" stroke="#cfd3e8" stroke-width="1.51"/><path d="M513,-147L409,-78L546,-28Z" fill="#d5d8ea" stroke="#d5d8ea" stroke-width="1.51"/><path d="M414,530L540,720L559,583Z" fill="#90b3d5" stroke="#90b3d5" stroke-width="1.51"/><path d="M491,389L414,530L559,583Z" fill="#9fbad9" stroke="#9fbad9" stroke-width="1.51"/><path d="M392,1229L271,1290L490,1262Z" fill="#7186a7" stroke="#7186a7" stroke-width="1.51"/><path d="M353,139L356,290L520,137Z" fill="#c6cce3" stroke="#c6cce3" stroke-width="1.51"/><path d="M540,720L422,843L541,820Z" fill="#7ea6ce" stroke="#7ea6ce" stroke-width="1.51"/><path d="M520,137L356,290L546,245Z" fill="#bfc9e1" stroke="#bfc9e1" stroke-width="1.51"/><path d="M356,290L491,389L546,245Z" fill="#b7c4e0" stroke="#b7c4e0" stroke-width="1.51"/><path d="M418,944L364,1165L542,1093Z" fill="#7695be" stroke="#7695be" stroke-width="1.51"/><path d="M340,657L422,843L540,720Z" fill="#86add2" stroke="#86add2" stroke-width="1.51"/><path d="M391,409L414,530L491,389Z" fill="#a9bfdc" stroke="#a9bfdc" stroke-width="1.51"/><path d="M422,843L418,944L515,947Z" fill="#7c9eca" stroke="#7c9eca" stroke-width="1.51"/><path d="M341,-187L409,-78L513,-147Z" fill="#dddcec" stroke="#dddcec" stroke-width="1.51"/><path d="M356,290L391,409L491,389Z" fill="#b4c4df" stroke="#b4c4df" stroke-width="1.51"/><path d="M224,991L232,1141L364,1165Z" fill="#7f98be" stroke="#7f98be" stroke-width="1.51"/><path d="M269,71L353,139L409,-78Z" fill="#d7d6e9" stroke="#d7d6e9" stroke-width="1.51"/><path d="M263,-12L269,71L409,-78Z" fill="#dcdaeb" stroke="#dcdaeb" stroke-width="1.51"/><path d="M391,409L254,540L414,530Z" fill="#a9bfdc" stroke="#a9bfdc" stroke-width="1.51"/><path d="M254,540L340,657L414,530Z" fill="#a1bbd9" stroke="#a1bbd9" stroke-width="1.51"/><path d="M224,991L364,1165L418,944Z" fill="#7f9ac2" stroke="#7f9ac2" stroke-width="1.51"/><path d="M228,822L224,991L418,944Z" fill="#86a2cd" stroke="#86a2cd" stroke-width="1.51"/><path d="M228,822L418,944L422,843Z" fill="#85a4ce" stroke="#85a4ce" stroke-width="1.51"/><path d="M340,657L228,822L422,843Z" fill="#8badd2" stroke="#8badd2" stroke-width="1.51"/><path d="M341,-187L263,-12L409,-78Z" fill="#e0dded" stroke="#e0dded" stroke-width="1.51"/><path d="M353,139L217,215L356,290Z" fill="#cacee5" stroke="#cacee5" stroke-width="1.51"/><path d="M356,290L236,380L391,409Z" fill="#b9c6e1" stroke="#b9c6e1" stroke-width="1.51"/><path d="M236,380L254,540L391,409Z" fill="#b2c4df" stroke="#b2c4df" stroke-width="1.51"/><path d="M364,1165L271,1290L392,1229Z" fill="#758aac" stroke="#758aac" stroke-width="1.51"/><path d="M209,641L228,822L340,657Z" fill="#95b5d6" stroke="#95b5d6" stroke-width="1.51"/><path d="M199,-202L263,-12L341,-187Z" fill="#e5e1ef" stroke="#e5e1ef" stroke-width="1.51"/><path d="M232,1141L271,1290L364,1165Z" fill="#798fb1" stroke="#798fb1" stroke-width="1.51"/><path d="M217,215L236,380L356,290Z" fill="#c4cce4" stroke="#c4cce4" stroke-width="1.51"/><path d="M254,540L209,641L340,657Z" fill="#9fbbda" stroke="#9fbbda" stroke-width="1.51"/><path d="M269,71L217,215L353,139Z" fill="#d3d3e7" stroke="#d3d3e7" stroke-width="1.51"/><path d="M209,641L109,717L228,822Z" fill="#96b6d7" stroke="#96b6d7" stroke-width="1.51"/><path d="M217,215L108,273L236,380Z" fill="#c8cfe5" stroke="#c8cfe5" stroke-width="1.51"/><path d="M236,380L76,410L254,540Z" fill="#b6c7e1" stroke="#b6c7e1" stroke-width="1.51"/><path d="M76,410L75,544L254,540Z" fill="#b3c6e0" stroke="#b3c6e0" stroke-width="1.51"/><path d="M199,-202L92,-72L263,-12Z" fill="#e7e3f0" stroke="#e7e3f0" stroke-width="1.51"/><path d="M263,-12L138,132L269,71Z" fill="#dbdaeb" stroke="#dbdaeb" stroke-width="1.51"/><path d="M138,132L217,215L269,71Z" fill="#d6d6e9" stroke="#d6d6e9" stroke-width="1.51"/><path d="M232,1141L94,1290L271,1290Z" fill="#7b8ead" stroke="#7b8ead" stroke-width="1.51"/><path d="M52,868L224,991L228,822Z" fill="#8da8d1" stroke="#8da8d1" stroke-width="1.51"/><path d="M74,1166L94,1290L232,1141Z" fill="#8194b4" stroke="#8194b4" stroke-width="1.51"/><path d="M92,-72L138,132L263,-12Z" fill="#e1deed" stroke="#e1deed" stroke-width="1.51"/><path d="M224,991L55,1010L232,1141Z" fill="#869ec5" stroke="#869ec5" stroke-width="1.51"/><path d="M75,544L209,641L254,540Z" fill="#a8c1dc" stroke="#a8c1dc" stroke-width="1.51"/><path d="M-40,-213L52,-161L199,-202Z" fill="#f1ebf5" stroke="#f1ebf5" stroke-width="1.51"/><path d="M52,868L55,1010L224,991Z" fill="#8ca6ce" stroke="#8ca6ce" stroke-width="1.51"/><path d="M55,1010L74,1166L232,1141Z" fill="#869dc0" stroke="#869dc0" stroke-width="1.51"/><path d="M108,273L76,410L236,380Z" fill="#c3cde4" stroke="#c3cde4" stroke-width="1.51"/><path d="M109,717L52,868L228,822Z" fill="#94b2d5" stroke="#94b2d5" stroke-width="1.51"/><path d="M52,-161L92,-72L199,-202Z" fill="#ece7f2" stroke="#ece7f2" stroke-width="1.51"/><path d="M138,132L108,273L217,215Z" fill="#d2d4e8" stroke="#d2d4e8" stroke-width="1.51"/><path d="M75,544L109,717L209,641Z" fill="#a3bedb" stroke="#a3bedb" stroke-width="1.51"/><path d="M-65,-51L-21,136L92,-72Z" fill="#e8e4f0" stroke="#e8e4f0" stroke-width="1.51"/><path d="M-21,136L-23,260L108,273Z" fill="#d6d8e9" stroke="#d6d8e9" stroke-width="1.51"/><path d="M-21,136L108,273L138,132Z" fill="#d8d8ea" stroke="#d8d8ea" stroke-width="1.51"/><path d="M92,-72L-21,136L138,132Z" fill="#e2dfee" stroke="#e2dfee" stroke-width="1.51"/><path d="M-77,561L-89,697L75,544Z" fill="#aec5df" stroke="#aec5df" stroke-width="1.51"/><path d="M-104,1229L-179,1302L94,1290Z" fill="#8393ac" stroke="#8393ac" stroke-width="1.51"/><path d="M-46,360L76,410L108,273Z" fill="#c8d1e7" stroke="#c8d1e7" stroke-width="1.51"/><path d="M-23,260L-46,360L108,273Z" fill="#ced4e8" stroke="#ced4e8" stroke-width="1.51"/><path d="M-93,819L52,868L109,717Z" fill="#99b6d7" stroke="#99b6d7" stroke-width="1.51"/><path d="M-89,697L-93,819L109,717Z" fill="#9dbcda" stroke="#9dbcda" stroke-width="1.51"/><path d="M75,544L-89,697L109,717Z" fill="#a6c0dd" stroke="#a6c0dd" stroke-width="1.51"/><path d="M55,1010L-85,1105L74,1166Z" fill="#8ba1c3" stroke="#8ba1c3" stroke-width="1.51"/><path d="M-77,561L75,544L76,410Z" fill="#b7cae2" stroke="#b7cae2" stroke-width="1.51"/><path d="M74,1166L-104,1229L94,1290Z" fill="#8495b1" stroke="#8495b1" stroke-width="1.51"/><path d="M52,-161L-65,-51L92,-72Z" fill="#eee8f3" stroke="#eee8f3" stroke-width="1.51"/><path d="M52,868L-101,970L55,1010Z" fill="#91aad1" stroke="#91aad1" stroke-width="1.51"/><path d="M-46,360L-77,561L76,410Z" fill="#bfcee4" stroke="#bfcee4" stroke-width="1.51"/><path d="M-85,1105L-104,1229L74,1166Z" fill="#8a9cbb" stroke="#8a9cbb" stroke-width="1.51"/><path d="M-93,819L-101,970L52,868Z" fill="#96b0d4" stroke="#96b0d4" stroke-width="1.51"/><path d="M-40,-213L-65,-51L52,-161Z" fill="#f1ecf5" stroke="#f1ecf5" stroke-width="1.51"/><path d="M-101,970L-85,1105L55,1010Z" fill="#90a6ca" stroke="#90a6ca" stroke-width="1.51"/><path d="M-218,-18L-172,138L-65,-51Z" fill="#ece7f2" stroke="#ece7f2" stroke-width="1.51"/><path d="M-175,429L-77,561L-46,360Z" fill="#c1d0e5" stroke="#c1d0e5" stroke-width="1.51"/><path d="M-216,-143L-65,-51L-40,-213Z" fill="#f4edf5" stroke="#f4edf5" stroke-width="1.51"/><path d="M-239,277L-46,360L-23,260Z" fill="#d2d7e9" stroke="#d2d7e9" stroke-width="1.51"/><path d="M-172,138L-23,260L-21,136Z" fill="#dedded" stroke="#dedded" stroke-width="1.51"/><path d="M-65,-51L-172,138L-21,136Z" fill="#e6e2f0" stroke="#e6e2f0" stroke-width="1.51"/><path d="M-172,138L-239,277L-23,260Z" fill="#dbdcec" stroke="#dbdcec" stroke-width="1.51"/><path d="M-193,931L-101,970L-93,819Z" fill="#98b0d5" stroke="#98b0d5" stroke-width="1.51"/><path d="M-239,277L-175,429L-46,360Z" fill="#ced6e9" stroke="#ced6e9" stroke-width="1.51"/><path d="M-101,970L-171,1111L-85,1105Z" fill="#91a5c8" stroke="#91a5c8" stroke-width="1.51"/><path d="M-171,1111L-104,1229L-85,1105Z" fill="#8da0c0" stroke="#8da0c0" stroke-width="1.51"/><path d="M-175,429L-236,536L-77,561Z" fill="#bccee5" stroke="#bccee5" stroke-width="1.51"/><path d="M-205,662L-89,697L-77,561Z" fill="#acc5df" stroke="#acc5df" stroke-width="1.51"/><path d="M-216,-143L-218,-18L-65,-51Z" fill="#f2ecf5" stroke="#f2ecf5" stroke-width="1.51"/><path d="M-205,662L-243,841L-93,819Z" fill="#a0bddb" stroke="#a0bddb" stroke-width="1.51"/><path d="M-205,662L-93,819L-89,697Z" fill="#a2c0dc" stroke="#a2c0dc" stroke-width="1.51"/><path d="M-236,536L-205,662L-77,561Z" fill="#b4cae2" stroke="#b4cae2" stroke-width="1.51"/><path d="M-243,841L-193,931L-93,819Z" fill="#9cb5d7" stroke="#9cb5d7" stroke-width="1.51"/><path d="M-193,931L-171,1111L-101,970Z" fill="#94aace" stroke="#94aace" stroke-width="1.51"/><path d="M-171,1111L-179,1302L-104,1229Z" fill="#8a9bb6" stroke="#8a9bb6" stroke-width="1.51"/><path d="M-243,841L-179,1302L-171,1111Z" fill="#92a6c7" stroke="#92a6c7" stroke-width="1.51"/><path d="M-193,931L-243,841L-171,1111Z" fill="#98aed2" stroke="#98aed2" stroke-width="1.51"/><path d="M-218,-18L-239,277L-172,138Z" fill="#e6e3f0" stroke="#e6e3f0" stroke-width="1.51"/><path d="M-239,277L-236,536L-175,429Z" fill="#c9d5e8" stroke="#c9d5e8" stroke-width="1.51"/><path d="M-236,536L-243,841L-205,662Z" fill="#abc5df" stroke="#abc5df" stroke-width="1.51"/><path d="M-239,277L-218,-18L-216,-143Z" fill="#ede8f3" stroke="#ede8f3" stroke-width="1.51"/><path d="M-239,277L-243,841L-236,536Z" fill="#bacee4" stroke="#bacee4" stroke-width="1.51"/></svg>